<?xml version="1.0" encoding="iso-8859-1"?>
<!-- Uploaded to: SVG Repo, www.svgrepo.com, Generator: SVG Repo Mixer Tools -->
<svg fill="#000000" height="800px" width="800px" version="1.1" id="Layer_1" xmlns="http://www.w3.org/2000/svg" xmlns:xlink="http://www.w3.org/1999/xlink" 
	 viewBox="0 0 512 512" xml:space="preserve">
<g>
	<g>
		<path d="M334.62,416.73c-6.518-6.519-17.088-6.519-23.608,0l-38.277,38.276V350.631c0-9.219-7.474-16.693-16.693-16.693
			c-9.219,0-16.693,7.474-16.693,16.693v104.374l-38.277-38.276c-6.518-6.519-17.088-6.519-23.608,0
			c-6.519,6.519-6.519,17.088,0,23.608l66.77,66.77c0.39,0.39,0.8,0.759,1.227,1.11c0.19,0.157,0.392,0.293,0.586,0.439
			c0.239,0.18,0.474,0.365,0.724,0.532c0.237,0.159,0.484,0.296,0.727,0.442c0.224,0.134,0.443,0.275,0.673,0.397
			c0.249,0.134,0.505,0.246,0.759,0.366c0.239,0.114,0.475,0.233,0.721,0.335c0.248,0.102,0.501,0.185,0.752,0.275
			c0.263,0.095,0.522,0.195,0.79,0.276c0.251,0.076,0.506,0.131,0.76,0.196c0.275,0.069,0.545,0.146,0.825,0.201
			c0.292,0.058,0.586,0.092,0.88,0.135c0.245,0.034,0.486,0.081,0.734,0.106c0.548,0.055,1.097,0.083,1.647,0.083
			c0.55,0,1.1-0.029,1.647-0.083c0.248-0.024,0.49-0.071,0.734-0.106c0.294-0.042,0.589-0.077,0.88-0.135
			c0.279-0.056,0.551-0.132,0.825-0.201c0.254-0.063,0.509-0.119,0.76-0.196c0.268-0.081,0.527-0.181,0.79-0.276
			c0.251-0.09,0.504-0.172,0.752-0.275c0.246-0.101,0.481-0.221,0.721-0.335c0.254-0.12,0.51-0.233,0.759-0.366
			c0.23-0.124,0.45-0.264,0.673-0.397c0.244-0.146,0.49-0.283,0.727-0.442c0.249-0.167,0.484-0.353,0.724-0.532
			c0.196-0.147,0.396-0.283,0.586-0.439c0.427-0.351,0.837-0.719,1.228-1.11l66.77-66.77
			C341.139,433.818,341.139,423.249,334.62,416.73z"/>
	</g>
</g>
<g>
	<g>
		<path d="M352.02,88.814c-15.013-13.913-35.65-21.641-58.2-21.763c-4.167,0-8.183,0.427-11.954,1.273
			c-9.664,2.179-17.29,6.184-23.466,9.428l-0.239,0.128c-0.295,0.155-1.173,0.536-2.146,0.743c-0.901-0.201-1.965-0.625-3.196-1.278
			c-5.165-2.721-12.967-6.833-22.704-9.026c-3.754-0.841-7.769-1.269-12.026-1.269c-22.454,0.12-43.087,7.849-58.105,21.768
			c-20.196,18.734-31.291,45.438-31.239,75.159c0,15.615,2.979,32.299,8.854,49.594c4.464,13.134,11.068,27.106,18.613,39.365
			c9.703,15.704,20.284,27.712,31.494,35.727c10.759,7.635,22.024,11.511,33.495,11.518c9.208,0,18.454-2.69,26.785-7.81
			l1.647-1.021c2.251-1.396,4.575-2.836,6.367-3.762c1.719,0.886,3.908,2.236,6.442,3.798l1.639,1.195
			c8.268,5.091,17.51,7.967,26.729,7.967h0.099c11.418,0,22.655-4.072,33.427-11.733c11.163-7.974,21.745-20.074,31.467-35.811
			c7.521-12.223,14.127-26.235,18.608-39.384c5.867-17.265,8.843-33.978,8.843-49.591
			C383.317,134.292,372.229,107.567,352.02,88.814z M342.804,202.821c-3.698,10.853-9.18,22.43-15.419,32.572
			c-7.363,11.917-14.917,20.873-22.427,26.237c-4.985,3.547-9.719,5.533-14.06,5.533h-0.087c-3.034,0-6.222-1.161-9.214-3.004
			l-1.667-1.121c-3.259-2.009-6.337-3.953-9.502-5.519c-5.172-2.592-10.007-3.93-14.373-3.93c-4.456,0-9.332,1.304-14.492,3.901
			c-3.257,1.613-6.439,3.579-9.511,5.484l-1.593,0.983c-3.023,1.856-6.224,2.837-9.247,2.837c-4.406-0.003-9.178-1.807-14.137-5.326
			c-7.541-5.391-15.097-14.166-22.445-26.056c-6.259-10.172-11.735-21.744-15.418-32.583c-4.698-13.827-7.079-26.899-7.079-38.881
			c-0.034-20.334,7.265-38.323,20.553-50.648c8.87-8.22,21.507-12.788,35.494-12.864c1.713,0,3.27,0.155,4.614,0.456
			c5.409,1.219,10.43,3.864,14.448,5.981c5.998,3.177,11.833,4.884,17.838,5.216l0.923,0.051l0.921-0.051
			c8.154-0.452,14.574-3.466,17.111-4.838c5.049-2.651,9.822-5.152,15.16-6.355c1.358-0.305,2.914-0.46,4.537-0.46
			c14.084,0.075,26.725,4.643,35.587,12.856c13.296,12.337,20.594,30.323,20.549,50.679
			C349.866,175.96,347.489,189.035,342.804,202.821z"/>
	</g>
</g>
<g>
	<g>
		<path d="M311.75,1.382c-0.02-0.835-0.061-1.311-0.061-1.311s-0.476-0.041-1.311-0.061c-0.835-0.019-2.029-0.018-3.452,0.08
			c-2.87,0.172-6.691,0.699-10.778,1.828c-4.087,1.131-8.422,2.88-12.551,5.273c-4.138,2.383-8.066,5.41-11.533,8.899
			c-3.468,3.488-6.495,7.416-8.87,11.563c-2.386,4.134-4.135,8.471-5.27,12.553c-1.132,4.085-1.668,7.896-1.847,10.759
			c-0.102,1.419-0.105,2.612-0.089,3.443c0.016,0.834,0.056,1.308,0.056,1.308s0.474,0.039,1.307,0.057
			c0.83,0.016,2.023,0.013,3.443-0.089c2.863-0.179,6.675-0.716,10.759-1.847c4.082-1.134,8.419-2.885,12.553-5.271
			c4.147-2.374,8.074-5.402,11.563-8.87c3.489-3.467,6.516-7.395,8.899-11.533c2.393-4.129,4.142-8.465,5.273-12.551
			c1.13-4.088,1.657-7.907,1.83-10.778C311.768,3.411,311.769,2.216,311.75,1.382z"/>
	</g>
</g>
</svg>