<?xml version="1.0" encoding="iso-8859-1"?>
<!-- Uploaded to: SVG Repo, www.svgrepo.com, Generator: SVG Repo Mixer Tools -->
<svg fill="#000000" height="800px" width="800px" version="1.1" id="Layer_1" xmlns="http://www.w3.org/2000/svg" xmlns:xlink="http://www.w3.org/1999/xlink" 
	 viewBox="0 0 512 512" xml:space="preserve">
<g>
	<g>
		<path d="M491.37,179.375c-0.392-1.794-0.827-3.631-1.295-5.46c-1.398-5.456-6.951-8.747-12.412-7.349
			c-5.457,1.398-8.747,6.955-7.35,12.411c0.407,1.59,0.786,3.184,1.124,4.739c1.04,4.773,5.263,8.031,9.956,8.031
			c0.719,0,1.449-0.076,2.181-0.236C489.077,190.313,492.567,184.88,491.37,179.375z"/>
	</g>
</g>
<g>
	<g>
		<path d="M501.801,205.513H392.877c3.373-40.183,27.89-74.651,40.345-89.78c6.282,7.602,15.618,20.101,23.782,35.834
			c2.593,4.999,8.75,6.95,13.75,4.355c5-2.594,6.95-8.751,4.356-13.751c-8.016-15.448-17.008-28.019-23.83-36.567
			c15.011-3.772,29.144-11.551,40.752-23.158l7.106-7.106c3.984-3.983,3.984-10.441,0.001-14.424s-10.44-3.983-14.424,0
			l-7.108,7.107c-22.147,22.147-56.261,26.178-82.96,9.804c-28.765-17.642-65.622-17.136-93.893,1.289l-34.555,22.519V67.088
			c0-5.633-4.567-10.199-10.199-10.199c-5.633,0-10.199,4.566-10.199,10.199v35.902l-36.635-23.875
			c-28.27-18.424-65.126-18.93-93.894-1.289c-26.698,16.375-60.814,12.342-82.959-9.805l-7.106-7.106
			c-3.983-3.983-10.442-3.983-14.424,0c-3.983,3.983-3.983,10.441,0,14.425l7.106,7.106c12.049,12.049,26.823,19.965,42.473,23.562
			c-14.804,18.584-39.283,55.502-42.367,99.505h-7.794C4.566,205.514,0,210.08,0,215.713c0,43.448,35.347,78.795,78.795,78.795
			c43.448,0,78.795-35.347,78.795-78.795c0-5.633-4.566-10.199-10.199-10.199h-7.793c-3.061-43.664-27.187-80.351-42.023-99.071
			c9.807-2.017,19.406-5.733,28.363-11.226c22.087-13.547,50.386-13.157,72.092,0.989l47.771,31.132V382.01
			c-26.647,4.418-47.614,25.836-51.356,52.702h-21.008c-5.633,0-10.199,4.566-10.199,10.199c0,5.633,4.566,10.199,10.199,10.199
			h165.127c5.632,0,10.199-4.566,10.199-10.199c0-5.633-4.567-10.199-10.199-10.199h-21.008
			c-3.741-26.867-24.709-48.284-51.356-52.702V125.983l45.694-29.778c21.708-14.147,50.005-14.534,72.092-0.99
			c9.505,5.829,19.732,9.659,30.164,11.577c-14.857,18.825-38.704,55.326-41.746,98.72h-7.793c-5.632,0-10.199,4.566-10.199,10.199
			c0,43.448,35.347,78.795,78.795,78.795S512,259.16,512,215.712C512,210.079,507.433,205.513,501.801,205.513z M78.795,274.109
			c-28.721,0-52.667-20.843-57.505-48.197H136.3C131.462,253.266,107.516,274.109,78.795,274.109z M119.125,205.513H38.467
			c3.372-40.177,27.883-74.64,40.34-89.773C91.276,130.845,115.765,165.225,119.125,205.513z M296.508,433.125h-81.015
			c4.563-18.117,20.994-31.569,40.507-31.569S291.944,415.009,296.508,433.125z M433.205,274.109
			c-28.721,0-52.667-20.843-57.505-48.197h115.01C485.872,253.266,461.926,274.109,433.205,274.109z"/>
	</g>
</g>
</svg>